<svg class="main-svg" xmlns="http://www.w3.org/2000/svg" xmlns:xlink="http://www.w3.org/1999/xlink" width="500" height="500" style="" viewBox="0 0 500 500"><rect x="0" y="0" width="500" height="500" style="fill: rgb(17, 17, 17); fill-opacity: 1;"/><defs id="defs-119004"><g class="clips"><clipPath id="clip119004polar-for-traces"><path d="M160,0A160,160 0,1,0 -160,-1.9594348786357652e-14A160,160 0,1,0 160,3.9188697572715304e-14Z" transform="translate(160,160)"/></clipPath></g><g class="gradients"/><g class="patterns"/></defs><g class="bglayer"/><g class="layer-below"><g class="imagelayer"/><g class="shapelayer"/></g><g class="cartesianlayer"/><g class="polarlayer"><g class="polar"><g class="polarsublayer draglayer"/><g class="polarsublayer plotbg"><path d="M160,0A160,160 0,1,0 -160,-1.9594348786357652e-14A160,160 0,1,0 160,3.9188697572715304e-14Z" transform="translate(250,260)" style="fill: rgb(17, 17, 17); fill-opacity: 1;"/></g><g class="polarsublayer backplot"><g class="maplayer"/></g><g class="polarsublayer angular-grid" style="fill: none;"><path class="angularaxisgrid" d="M250,260L250,100" style="stroke: rgb(220, 220, 220); stroke-opacity: 0.2; stroke-width: 1px;"/><path class="angularaxisgrid" d="M250,260L344.04564036679574,130.5572809000084" style="stroke: rgb(220, 220, 220); stroke-opacity: 0.2; stroke-width: 1px;"/><path class="angularaxisgrid" d="M250,260L402.1690426072246,210.5572809000084" style="stroke: rgb(220, 220, 220); stroke-opacity: 0.2; stroke-width: 1px;"/><path class="angularaxisgrid" d="M250,260L402.1690426072246,309.44271909999156" style="stroke: rgb(220, 220, 220); stroke-opacity: 0.2; stroke-width: 1px;"/><path class="angularaxisgrid" d="M250,260L344.04564036679574,389.44271909999156" style="stroke: rgb(220, 220, 220); stroke-opacity: 0.2; stroke-width: 1px;"/><path class="angularaxisgrid" d="M250,260L250,420" style="stroke: rgb(220, 220, 220); stroke-opacity: 0.2; stroke-width: 1px;"/><path class="angularaxisgrid" d="M250,260L155.95435963320432,389.44271909999156" style="stroke: rgb(220, 220, 220); stroke-opacity: 0.2; stroke-width: 1px;"/><path class="angularaxisgrid" d="M250,260L97.83095739277545,309.4427190999916" style="stroke: rgb(220, 220, 220); stroke-opacity: 0.2; stroke-width: 1px;"/><path class="angularaxisgrid" d="M250,260L97.83095739277542,210.55728090000844" style="stroke: rgb(220, 220, 220); stroke-opacity: 0.2; stroke-width: 1px;"/><path class="angularaxisgrid" d="M250,260L155.95435963320426,130.55728090000844" style="stroke: rgb(220, 220, 220); stroke-opacity: 0.2; stroke-width: 1px;"/></g><g class="polarsublayer radial-grid" display="none" style="fill: none;"/><g class="polarsublayer frontplot" transform="translate(90,100)" clip-path="url(#clip119004polar-for-traces)"><g class="barlayer"/><g class="scatterlayer"><g class="trace scatter trace6e7500" style="stroke-miterlimit: 2; opacity: 0.5;"><g class="fills"><g><path class="js-fill" d="M160,160L177.96,135.28L165.5,158.21L203.59,174.16L186.62,196.63L160,214.13L98.43,244.74L70.81,188.98L155.3,158.47L67.69,32.94L160,160Z" style="fill: rgb(255, 255, 255); fill-opacity: 0.5; stroke-width: 0;"/></g></g><g class="errorbars"/><g class="lines"><path class="js-line" d="M160,160L177.96,135.28L165.5,158.21L203.59,174.16L186.62,196.63L160,214.13L98.43,244.74L70.81,188.98L155.3,158.47L67.69,32.94L160,160" style="vector-effect: non-scaling-stroke; fill: none; stroke: rgb(255, 255, 255); stroke-opacity: 1; stroke-width: 2px; opacity: 1;"/></g><g class="points"/><g class="text"/></g><g class="trace scatter trace3b5de8" style="stroke-miterlimit: 2; opacity: 0.5;"><g class="fills"><g><path class="js-fill" d="M160,100.7L181.04,131.04L221.9,139.89L195.11,171.41L189.69,200.87L160,205.21L141.9,184.91L111.74,175.68L7.83,110.56L127.07,114.68L160,100.7Z" style="fill: rgb(255, 0, 255); fill-opacity: 0.5; stroke-width: 0;"/></g></g><g class="errorbars"/><g class="lines"><path class="js-line" d="M160,100.7L181.04,131.04L221.9,139.89L195.11,171.41L189.69,200.87L160,205.21L141.9,184.91L111.74,175.68L7.83,110.56L127.07,114.68L160,100.7" style="vector-effect: non-scaling-stroke; fill: none; stroke: rgb(255, 0, 255); stroke-opacity: 1; stroke-width: 2px; opacity: 1;"/></g><g class="points"/><g class="text"/></g></g></g><g class="polarsublayer angular-line"><path d="M160,0A160,160 0,1,0 -160,-1.9594348786357652e-14A160,160 0,1,0 160,3.9188697572715304e-14Z" transform="translate(250,260)" stroke-width="1" style="fill: none; stroke: rgb(220, 220, 220); stroke-opacity: 0.2;"/></g><g class="polarsublayer radial-line"><line x1="0" y1="0" x2="160" y2="0" transform="translate(250,260)" stroke-width="1" style="fill: none; stroke: rgb(220, 220, 220); stroke-opacity: 0.2;"/></g><g class="polarsublayer angular-axis"><g class="angularaxistick"><text text-anchor="middle" x="1.7757378587636624e-16" y="-5.300000000000001" transform="translate(250,100)" style="font-family: 'DM Sans', sans-serif; font-size: 12px; fill: rgb(242, 245, 250); fill-opacity: 1; white-space: pre; opacity: 1;">diamond</text></g><g class="angularaxistick"><text text-anchor="start" x="1.7045772316481722" y="-1.8190920105588355" transform="translate(344.04564036679574,130.5572809000084)" style="font-family: 'DM Sans', sans-serif; font-size: 12px; fill: rgb(242, 245, 250); fill-opacity: 1; white-space: pre; opacity: 1;">free</text></g><g class="angularaxistick"><text text-anchor="start" x="2.7580638972559455" y="2.3566472982524225" transform="translate(402.1690426072246,210.5572809000084)" style="font-family: 'DM Sans', sans-serif; font-size: 12px; fill: rgb(242, 245, 250); fill-opacity: 1; white-space: pre; opacity: 1;">constant</text></g><g class="angularaxistick"><text text-anchor="start" x="2.7580638972559455" y="8.59879058462636" transform="translate(402.1690426072246,309.44271909999156)" style="font-family: 'DM Sans', sans-serif; font-size: 12px; fill: rgb(242, 245, 250); fill-opacity: 1; white-space: pre; opacity: 1;">start</text></g><g class="angularaxistick"><text text-anchor="start" x="1.7045772316481722" y="14.523051275815105" transform="translate(344.04564036679574,389.44271909999156)" style="font-family: 'DM Sans', sans-serif; font-size: 12px; fill: rgb(242, 245, 250); fill-opacity: 1; white-space: pre; opacity: 1;">power</text></g><g class="angularaxistick"><text text-anchor="middle" x="1.7757378587636624e-16" y="14.9" transform="translate(250,420)" style="font-family: 'DM Sans', sans-serif; font-size: 12px; fill: rgb(242, 245, 250); fill-opacity: 1; white-space: pre; opacity: 1;">control</text></g><g class="angularaxistick"><text text-anchor="end" x="-1.704577231648172" y="14.523051275815103" transform="translate(155.95435963320432,389.44271909999156)" style="font-family: 'DM Sans', sans-serif; font-size: 12px; fill: rgb(242, 245, 250); fill-opacity: 1; white-space: pre; opacity: 1;">place</text></g><g class="angularaxistick"><text text-anchor="end" x="-2.7580638972559455" y="8.598790584626363" transform="translate(97.83095739277545,309.4427190999916)" style="font-family: 'DM Sans', sans-serif; font-size: 12px; fill: rgb(242, 245, 250); fill-opacity: 1; white-space: pre; opacity: 1;">point</text></g><g class="angularaxistick"><text text-anchor="end" x="-2.758063897255946" y="2.356647298252424" transform="translate(97.83095739277542,210.55728090000844)" style="font-family: 'DM Sans', sans-serif; font-size: 12px; fill: rgb(242, 245, 250); fill-opacity: 1; white-space: pre; opacity: 1;">holiday</text></g><g class="angularaxistick"><text text-anchor="end" x="-1.7045772316481727" y="-1.8190920105588342" transform="translate(155.95435963320426,130.55728090000844)" style="font-family: 'DM Sans', sans-serif; font-size: 12px; fill: rgb(242, 245, 250); fill-opacity: 1; white-space: pre; opacity: 1;">bridge</text></g></g><g class="polarsublayer radial-axis" display="none"/></g></g><g class="smithlayer"/><g class="ternarylayer"/><g class="geolayer"/><g class="funnelarealayer"/><g class="pielayer"/><g class="iciclelayer"/><g class="treemaplayer"/><g class="sunburstlayer"/><g class="glimages"/><defs id="topdefs-119004"><g class="clips"/><clipPath id="legend119004"><rect width="200" height="29" x="0" y="0"/></clipPath></defs><g class="layer-above"><g class="imagelayer"/><g class="shapelayer"/></g><g class="infolayer"><g class="legend" pointer-events="all" transform="translate(150,455)"><rect class="bg" shape-rendering="crispEdges" width="200" height="29" x="0" y="0" style="stroke: rgb(68, 68, 68); stroke-opacity: 1; fill: rgb(0, 0, 0); fill-opacity: 0; stroke-width: 0px;"/><g class="scrollbox" transform="" clip-path="url(#legend119004)"><g class="groups" transform=""><g class="traces" transform="translate(0,14.5)" style="opacity: 1;"><text class="legendtext" text-anchor="start" x="40" y="4.680000000000001" style="font-family: 'DM Sans', sans-serif; font-size: 12px; fill: rgb(242, 245, 250); fill-opacity: 1; white-space: pre;">city score</text><g class="layers" style="opacity: 0.5;"><g class="legendfill"><path class="js-fill" d="M5,-2h30v6h-30z" style="stroke-width: 0; fill: rgb(255, 255, 255); fill-opacity: 0.5;"/></g><g class="legendlines"><path class="js-line" d="M5,-2h30" style="fill: none; stroke: rgb(255, 255, 255); stroke-opacity: 1; stroke-width: 2px;"/></g><g class="legendsymbols"><g class="legendpoints"/></g></g><rect class="legendtoggle" x="0" y="-9.5" width="93.1875" height="19" style="fill: rgb(0, 0, 0); fill-opacity: 0;"/></g></g><g class="groups" transform="translate(95.6875,0)"><g class="traces" transform="translate(0,14.5)" style="opacity: 1;"><text class="legendtext" text-anchor="start" x="40" y="4.680000000000001" style="font-family: 'DM Sans', sans-serif; font-size: 12px; fill: rgb(242, 245, 250); fill-opacity: 1; white-space: pre;">song score</text><g class="layers" style="opacity: 0.5;"><g class="legendfill"><path class="js-fill" d="M5,-2h30v6h-30z" style="stroke-width: 0; fill: rgb(255, 0, 255); fill-opacity: 0.5;"/></g><g class="legendlines"><path class="js-line" d="M5,-2h30" style="fill: none; stroke: rgb(255, 0, 255); stroke-opacity: 1; stroke-width: 2px;"/></g><g class="legendsymbols"><g class="legendpoints"/></g></g><rect class="legendtoggle" x="0" y="-9.5" width="101.203125" height="19" style="fill: rgb(0, 0, 0); fill-opacity: 0;"/></g></g></g><rect class="scrollbar" rx="20" ry="3" width="0" height="0" x="0" y="0" style="fill: rgb(128, 139, 164); fill-opacity: 1;"/></g><g class="g-gtitle"><text class="gtitle" x="250" y="40" text-anchor="middle" dy="0.7em" style="font-family: 'DM Sans', sans-serif; font-size: 17px; fill: rgb(242, 245, 250); opacity: 1; font-weight: normal; white-space: pre;">Term prevalence</text></g><g class="g-polartitle"/></g></svg>