<svg class="main-svg" xmlns="http://www.w3.org/2000/svg" xmlns:xlink="http://www.w3.org/1999/xlink" width="500" height="500" style="" viewBox="0 0 500 500"><rect x="0" y="0" width="500" height="500" style="fill: rgb(17, 17, 17); fill-opacity: 1;"/><defs id="defs-aaecc8"><g class="clips"><clipPath id="clipaaecc8polar-for-traces"><path d="M170,0A170,170 0,1,0 -170,-2.0818995585505004e-14A170,170 0,1,0 170,4.163799117101001e-14Z" transform="translate(170,170)"/></clipPath></g><g class="gradients"/><g class="patterns"/></defs><g class="bglayer"/><g class="layer-below"><g class="imagelayer"/><g class="shapelayer"/></g><g class="cartesianlayer"/><g class="polarlayer"><g class="polar"><g class="polarsublayer draglayer"/><g class="polarsublayer plotbg"><path d="M170,0A170,170 0,1,0 -170,-2.0818995585505004e-14A170,170 0,1,0 170,4.163799117101001e-14Z" transform="translate(250,238.5)" style="fill: rgb(17, 17, 17); fill-opacity: 1;"/></g><g class="polarsublayer backplot"><g class="maplayer"/></g><g class="polarsublayer angular-grid" style="fill: none;"><path class="angularaxisgrid" d="M250,238.5L250,68.5" style="stroke: rgb(80, 103, 132); stroke-opacity: 1; stroke-width: 1px;"/><path class="angularaxisgrid" d="M250,238.5L349.9234928897204,100.96711095625892" style="stroke: rgb(80, 103, 132); stroke-opacity: 1; stroke-width: 1px;"/><path class="angularaxisgrid" d="M250,238.5L411.67960777017606,185.96711095625895" style="stroke: rgb(80, 103, 132); stroke-opacity: 1; stroke-width: 1px;"/><path class="angularaxisgrid" d="M250,238.5L411.67960777017606,291.0328890437411" style="stroke: rgb(80, 103, 132); stroke-opacity: 1; stroke-width: 1px;"/><path class="angularaxisgrid" d="M250,238.5L349.9234928897204,376.0328890437411" style="stroke: rgb(80, 103, 132); stroke-opacity: 1; stroke-width: 1px;"/><path class="angularaxisgrid" d="M250,238.5L250,408.5" style="stroke: rgb(80, 103, 132); stroke-opacity: 1; stroke-width: 1px;"/><path class="angularaxisgrid" d="M250,238.5L150.07650711027958,376.0328890437411" style="stroke: rgb(80, 103, 132); stroke-opacity: 1; stroke-width: 1px;"/><path class="angularaxisgrid" d="M250,238.5L88.32039222982391,291.0328890437411" style="stroke: rgb(80, 103, 132); stroke-opacity: 1; stroke-width: 1px;"/><path class="angularaxisgrid" d="M250,238.5L88.32039222982388,185.96711095625898" style="stroke: rgb(80, 103, 132); stroke-opacity: 1; stroke-width: 1px;"/><path class="angularaxisgrid" d="M250,238.5L150.07650711027955,100.96711095625895" style="stroke: rgb(80, 103, 132); stroke-opacity: 1; stroke-width: 1px;"/></g><g class="polarsublayer radial-grid" transform="translate(250,238.5)" style="fill: none;"><path class="xgrid" d="M19.77,0A19.77,19.77 0,1,0 -19.77,-2.421126721914317e-15A19.77,19.77 0,1,0 19.77,4.842253443828634e-15Z" style="stroke: rgb(80, 103, 132); stroke-opacity: 1; stroke-width: 1px;"/><path class="xgrid" d="M39.54,0A39.54,39.54 0,1,0 -39.54,-4.842253443828634e-15A39.54,39.54 0,1,0 39.54,9.684506887657268e-15Z" style="stroke: rgb(80, 103, 132); stroke-opacity: 1; stroke-width: 1px;"/><path class="xgrid" d="M59.31,0A59.31,59.31 0,1,0 -59.31,-7.263380165742952e-15A59.31,59.31 0,1,0 59.31,1.4526760331485905e-14Z" style="stroke: rgb(80, 103, 132); stroke-opacity: 1; stroke-width: 1px;"/><path class="xgrid" d="M79.08,0A79.08,79.08 0,1,0 -79.08,-9.684506887657268e-15A79.08,79.08 0,1,0 79.08,1.9369013775314537e-14Z" style="stroke: rgb(80, 103, 132); stroke-opacity: 1; stroke-width: 1px;"/><path class="xgrid" d="M98.85,0A98.85,98.85 0,1,0 -98.85,-1.2105633609571586e-14A98.85,98.85 0,1,0 98.85,2.4211267219143172e-14Z" style="stroke: rgb(80, 103, 132); stroke-opacity: 1; stroke-width: 1px;"/><path class="xgrid" d="M118.62,0A118.62,118.62 0,1,0 -118.62,-1.4526760331485905e-14A118.62,118.62 0,1,0 118.62,2.905352066297181e-14Z" style="stroke: rgb(80, 103, 132); stroke-opacity: 1; stroke-width: 1px;"/><path class="xgrid" d="M138.39,0A138.39,138.39 0,1,0 -138.39,-1.694788705340022e-14A138.39,138.39 0,1,0 138.39,3.389577410680044e-14Z" style="stroke: rgb(80, 103, 132); stroke-opacity: 1; stroke-width: 1px;"/><path class="xgrid" d="M158.16,0A158.16,158.16 0,1,0 -158.16,-1.9369013775314537e-14A158.16,158.16 0,1,0 158.16,3.8738027550629073e-14Z" style="stroke: rgb(80, 103, 132); stroke-opacity: 1; stroke-width: 1px;"/></g><g class="polarsublayer frontplot" transform="translate(80,68.50000000000001)" clip-path="url(#clipaaecc8polar-for-traces)"><g class="barlayer"/><g class="scatterlayer"><g class="trace scatter trace9d0bd0" style="stroke-miterlimit: 2; opacity: 1;"><g class="fills"><g><path class="js-fill" d="M170,170L170,170L170,170L170.48,170.15L170.75,171.03L170,170.66L168.36,172.26L169.19,170.26L160.3,166.85L70.08,32.47L170,170Z" style="fill: rgb(255, 0, 255); fill-opacity: 0.5; stroke-width: 0;"/></g></g><g class="errorbars"/><g class="lines"><path class="js-line" d="M170,170L170,170L170,170L170.48,170.15L170.75,171.03L170,170.66L168.36,172.26L169.19,170.26L160.3,166.85L70.08,32.47L170,170" style="vector-effect: none; fill: none; stroke: rgb(255, 0, 255); stroke-opacity: 1; stroke-width: 2px; opacity: 1;"/></g><g class="points"/><g class="text"/></g><g class="trace scatter trace78eb59" style="stroke-miterlimit: 2; opacity: 1;"><g class="fills"><g><path class="js-fill" d="M170,170L170,170L170,170L188.07,175.87L177.13,179.82L170,195.1L157.54,187.15L92.97,195.03L139.27,160.02L155.67,150.28L170,170Z" style="fill: rgb(30, 144, 255); fill-opacity: 0.5; stroke-width: 0;"/></g></g><g class="errorbars"/><g class="lines"><path class="js-line" d="M170,170L170,170L170,170L188.07,175.87L177.13,179.82L170,195.1L157.54,187.15L92.97,195.03L139.27,160.02L155.67,150.28L170,170" style="vector-effect: none; fill: none; stroke: rgb(30, 144, 255); stroke-opacity: 1; stroke-width: 2px; opacity: 1;"/></g><g class="points"/><g class="text"/></g></g></g><g class="polarsublayer angular-line"><path d="M170,0A170,170 0,1,0 -170,-2.0818995585505004e-14A170,170 0,1,0 170,4.163799117101001e-14Z" transform="translate(250,238.5)" stroke-width="1" style="fill: none; stroke: rgb(80, 103, 132); stroke-opacity: 1;"/></g><g class="polarsublayer radial-line"><line x1="0" y1="0" x2="170" y2="0" transform="translate(250,238.5)" stroke-width="1" style="fill: none; stroke: rgb(80, 103, 132); stroke-opacity: 1;"/></g><g class="polarsublayer angular-axis"><g class="angularaxistick"><text text-anchor="middle" x="1.7757378587636624e-16" y="-5.300000000000001" transform="translate(250,68.5)" style="font-family: 'Open Sans', verdana, arial, sans-serif; font-size: 12px; fill: rgb(242, 245, 250); fill-opacity: 1; white-space: pre; opacity: 1;">fragment</text></g><g class="angularaxistick"><text text-anchor="start" x="1.7045772316481722" y="-1.8190920105588355" transform="translate(349.9234928897204,100.96711095625892)" style="font-family: 'Open Sans', verdana, arial, sans-serif; font-size: 12px; fill: rgb(242, 245, 250); fill-opacity: 1; white-space: pre; opacity: 1;">fragments</text></g><g class="angularaxistick"><text text-anchor="start" x="2.7580638972559455" y="2.3566472982524225" transform="translate(411.67960777017606,185.96711095625895)" style="font-family: 'Open Sans', verdana, arial, sans-serif; font-size: 12px; fill: rgb(242, 245, 250); fill-opacity: 1; white-space: pre; opacity: 1;">fraction</text></g><g class="angularaxistick"><text text-anchor="start" x="2.7580638972559455" y="8.59879058462636" transform="translate(411.67960777017606,291.0328890437411)" style="font-family: 'Open Sans', verdana, arial, sans-serif; font-size: 12px; fill: rgb(242, 245, 250); fill-opacity: 1; white-space: pre; opacity: 1;">animal</text></g><g class="angularaxistick"><text text-anchor="start" x="1.7045772316481722" y="14.523051275815105" transform="translate(349.9234928897204,376.0328890437411)" style="font-family: 'Open Sans', verdana, arial, sans-serif; font-size: 12px; fill: rgb(242, 245, 250); fill-opacity: 1; white-space: pre; opacity: 1;">sea</text></g><g class="angularaxistick"><text text-anchor="middle" x="1.7757378587636624e-16" y="14.9" transform="translate(250,408.5)" style="font-family: 'Open Sans', verdana, arial, sans-serif; font-size: 12px; fill: rgb(242, 245, 250); fill-opacity: 1; white-space: pre; opacity: 1;">elite</text></g><g class="angularaxistick"><text text-anchor="end" x="-1.704577231648172" y="14.523051275815103" transform="translate(150.07650711027958,376.0328890437411)" style="font-family: 'Open Sans', verdana, arial, sans-serif; font-size: 12px; fill: rgb(242, 245, 250); fill-opacity: 1; white-space: pre; opacity: 1;">boca</text></g><g class="angularaxistick"><text text-anchor="end" x="-2.7580638972559455" y="8.598790584626363" transform="translate(88.32039222982391,291.0328890437411)" style="font-family: 'Open Sans', verdana, arial, sans-serif; font-size: 12px; fill: rgb(242, 245, 250); fill-opacity: 1; white-space: pre; opacity: 1;">las</text></g><g class="angularaxistick"><text text-anchor="end" x="-2.758063897255946" y="2.356647298252424" transform="translate(88.32039222982388,185.96711095625898)" style="font-family: 'Open Sans', verdana, arial, sans-serif; font-size: 12px; fill: rgb(242, 245, 250); fill-opacity: 1; white-space: pre; opacity: 1;">del</text></g><g class="angularaxistick"><text text-anchor="end" x="-1.7045772316481727" y="-1.8190920105588342" transform="translate(150.07650711027955,100.96711095625895)" style="font-family: 'Open Sans', verdana, arial, sans-serif; font-size: 12px; fill: rgb(242, 245, 250); fill-opacity: 1; white-space: pre; opacity: 1;">buenos</text></g></g><g class="polarsublayer radial-axis" transform="translate(250,238.5)"><g class="xtick"><text text-anchor="start" x="0" y="14.9" transform=" rotate(90,0,8.9)" style="font-family: 'Open Sans', verdana, arial, sans-serif; font-size: 12px; fill: rgb(242, 245, 250); fill-opacity: 1; white-space: pre; opacity: 1;">0</text></g><g class="xtick"><text text-anchor="start" x="0" y="14.9" transform="translate(19.77,0) rotate(90,0,8.9)" style="font-family: 'Open Sans', verdana, arial, sans-serif; font-size: 12px; fill: rgb(242, 245, 250); fill-opacity: 1; white-space: pre; opacity: 1;">0.1</text></g><g class="xtick"><text text-anchor="start" x="0" y="14.9" transform="translate(39.54,0) rotate(90,0,8.9)" style="font-family: 'Open Sans', verdana, arial, sans-serif; font-size: 12px; fill: rgb(242, 245, 250); fill-opacity: 1; white-space: pre; opacity: 1;">0.2</text></g><g class="xtick"><text text-anchor="start" x="0" y="14.9" transform="translate(59.31,0) rotate(90,0,8.9)" style="font-family: 'Open Sans', verdana, arial, sans-serif; font-size: 12px; fill: rgb(242, 245, 250); fill-opacity: 1; white-space: pre; opacity: 1;">0.3</text></g><g class="xtick"><text text-anchor="start" x="0" y="14.9" transform="translate(79.08,0) rotate(90,0,8.9)" style="font-family: 'Open Sans', verdana, arial, sans-serif; font-size: 12px; fill: rgb(242, 245, 250); fill-opacity: 1; white-space: pre; opacity: 1;">0.4</text></g><g class="xtick"><text text-anchor="start" x="0" y="14.9" transform="translate(98.85,0) rotate(90,0,8.9)" style="font-family: 'Open Sans', verdana, arial, sans-serif; font-size: 12px; fill: rgb(242, 245, 250); fill-opacity: 1; white-space: pre; opacity: 1;">0.5</text></g><g class="xtick"><text text-anchor="start" x="0" y="14.9" transform="translate(118.62,0) rotate(90,0,8.9)" style="font-family: 'Open Sans', verdana, arial, sans-serif; font-size: 12px; fill: rgb(242, 245, 250); fill-opacity: 1; white-space: pre; opacity: 1;">0.6</text></g><g class="xtick"><text text-anchor="start" x="0" y="14.9" transform="translate(138.39,0) rotate(90,0,8.9)" style="font-family: 'Open Sans', verdana, arial, sans-serif; font-size: 12px; fill: rgb(242, 245, 250); fill-opacity: 1; white-space: pre; opacity: 1;">0.7</text></g><g class="xtick"><text text-anchor="start" x="0" y="14.9" transform="translate(158.16,0) rotate(90,0,8.9)" style="font-family: 'Open Sans', verdana, arial, sans-serif; font-size: 12px; fill: rgb(242, 245, 250); fill-opacity: 1; white-space: pre; opacity: 1;">0.8</text></g></g></g></g><g class="smithlayer"/><g class="ternarylayer"/><g class="geolayer"/><g class="funnelarealayer"/><g class="pielayer"/><g class="iciclelayer"/><g class="treemaplayer"/><g class="sunburstlayer"/><g class="glimages"/><defs id="topdefs-aaecc8"><g class="clips"/><clipPath id="legendaaecc8"><rect width="323" height="29" x="0" y="0"/></clipPath></defs><g class="layer-above"><g class="imagelayer"/><g class="shapelayer"/></g><g class="infolayer"><g class="legend" pointer-events="all" transform="translate(80,459.4)"><rect class="bg" shape-rendering="crispEdges" width="323" height="29" x="0" y="0" style="stroke: rgb(68, 68, 68); stroke-opacity: 1; fill: rgb(0, 0, 0); fill-opacity: 0; stroke-width: 0px;"/><g class="scrollbox" transform="" clip-path="url(#legendaaecc8)"><text class="legendtitletext" text-anchor="start" x="2" y="18.2" style="font-family: 'Open Sans', verdana, arial, sans-serif; font-size: 14px; fill: rgb(242, 245, 250); fill-opacity: 1; white-space: pre;">variable</text><g class="groups" transform=""><g class="traces" transform="translate(65.828125,14.5)" style="opacity: 1;"><text class="legendtext" text-anchor="start" x="40" y="4.680000000000001" style="font-family: 'Open Sans', verdana, arial, sans-serif; font-size: 12px; fill: rgb(242, 245, 250); fill-opacity: 1; white-space: pre;">score_in_city</text><g class="layers" style="opacity: 1;"><g class="legendfill"><path class="js-fill" d="M5,-2h30v6h-30z" style="stroke-width: 0; fill: rgb(255, 0, 255); fill-opacity: 0.5;"/></g><g class="legendlines"><path class="js-line" d="M5,-2h30" style="fill: none; stroke: rgb(255, 0, 255); stroke-opacity: 1; stroke-width: 2px;"/></g><g class="legendsymbols"><g class="legendpoints"/></g></g><rect class="legendtoggle" x="0" y="-9.5" width="122.078125" height="19" style="fill: rgb(0, 0, 0); fill-opacity: 0;"/></g></g><g class="groups" transform="translate(124.578125,0)"><g class="traces" transform="translate(65.828125,14.5)" style="opacity: 1;"><text class="legendtext" text-anchor="start" x="40" y="4.680000000000001" style="font-family: 'Open Sans', verdana, arial, sans-serif; font-size: 12px; fill: rgb(242, 245, 250); fill-opacity: 1; white-space: pre;">score_in_song</text><g class="layers" style="opacity: 1;"><g class="legendfill"><path class="js-fill" d="M5,-2h30v6h-30z" style="stroke-width: 0; fill: rgb(30, 144, 255); fill-opacity: 0.5;"/></g><g class="legendlines"><path class="js-line" d="M5,-2h30" style="fill: none; stroke: rgb(30, 144, 255); stroke-opacity: 1; stroke-width: 2px;"/></g><g class="legendsymbols"><g class="legendpoints"/></g></g><rect class="legendtoggle" x="0" y="-9.5" width="129.3125" height="19" style="fill: rgb(0, 0, 0); fill-opacity: 0;"/></g></g></g><rect class="scrollbar" rx="20" ry="3" width="0" height="0" x="0" y="0" style="fill: rgb(128, 139, 164); fill-opacity: 1;"/></g><g class="g-gtitle"/><g class="g-polartitle"/></g></svg>