<svg class="main-svg" xmlns="http://www.w3.org/2000/svg" xmlns:xlink="http://www.w3.org/1999/xlink" width="500" height="500" style="" viewBox="0 0 500 500"><rect x="0" y="0" width="500" height="500" style="fill: rgb(17, 17, 17); fill-opacity: 1;"/><defs id="defs-25a67b"><g class="clips"><clipPath id="clip25a67bpolar-for-traces"><path d="M170,0A170,170 0,1,0 -170,-2.0818995585505004e-14A170,170 0,1,0 170,4.163799117101001e-14Z" transform="translate(170,170)"/></clipPath></g><g class="gradients"/><g class="patterns"/></defs><g class="bglayer"/><g class="layer-below"><g class="imagelayer"/><g class="shapelayer"/></g><g class="cartesianlayer"/><g class="polarlayer"><g class="polar"><g class="polarsublayer draglayer"/><g class="polarsublayer plotbg"><path d="M170,0A170,170 0,1,0 -170,-2.0818995585505004e-14A170,170 0,1,0 170,4.163799117101001e-14Z" transform="translate(250,238.5)" style="fill: rgb(17, 17, 17); fill-opacity: 1;"/></g><g class="polarsublayer backplot"><g class="maplayer"/></g><g class="polarsublayer angular-grid" style="fill: none;"><path class="angularaxisgrid" d="M250,238.5L250,68.5" style="stroke: rgb(80, 103, 132); stroke-opacity: 1; stroke-width: 1px;"/><path class="angularaxisgrid" d="M250,238.5L349.9234928897204,100.96711095625892" style="stroke: rgb(80, 103, 132); stroke-opacity: 1; stroke-width: 1px;"/><path class="angularaxisgrid" d="M250,238.5L411.67960777017606,185.96711095625895" style="stroke: rgb(80, 103, 132); stroke-opacity: 1; stroke-width: 1px;"/><path class="angularaxisgrid" d="M250,238.5L411.67960777017606,291.0328890437411" style="stroke: rgb(80, 103, 132); stroke-opacity: 1; stroke-width: 1px;"/><path class="angularaxisgrid" d="M250,238.5L349.9234928897204,376.0328890437411" style="stroke: rgb(80, 103, 132); stroke-opacity: 1; stroke-width: 1px;"/><path class="angularaxisgrid" d="M250,238.5L250,408.5" style="stroke: rgb(80, 103, 132); stroke-opacity: 1; stroke-width: 1px;"/><path class="angularaxisgrid" d="M250,238.5L150.07650711027958,376.0328890437411" style="stroke: rgb(80, 103, 132); stroke-opacity: 1; stroke-width: 1px;"/><path class="angularaxisgrid" d="M250,238.5L88.32039222982391,291.0328890437411" style="stroke: rgb(80, 103, 132); stroke-opacity: 1; stroke-width: 1px;"/><path class="angularaxisgrid" d="M250,238.5L88.32039222982388,185.96711095625898" style="stroke: rgb(80, 103, 132); stroke-opacity: 1; stroke-width: 1px;"/><path class="angularaxisgrid" d="M250,238.5L150.07650711027955,100.96711095625895" style="stroke: rgb(80, 103, 132); stroke-opacity: 1; stroke-width: 1px;"/></g><g class="polarsublayer radial-grid" transform="translate(250,238.5)" style="fill: none;"><path class="xgrid" d="M19.22,0A19.22,19.22 0,1,0 -19.22,-2.353771147961213e-15A19.22,19.22 0,1,0 19.22,4.707542295922426e-15Z" style="stroke: rgb(80, 103, 132); stroke-opacity: 1; stroke-width: 1px;"/><path class="xgrid" d="M38.44,0A38.44,38.44 0,1,0 -38.44,-4.707542295922426e-15A38.44,38.44 0,1,0 38.44,9.415084591844851e-15Z" style="stroke: rgb(80, 103, 132); stroke-opacity: 1; stroke-width: 1px;"/><path class="xgrid" d="M57.66,0A57.66,57.66 0,1,0 -57.66,-7.0613134438836385e-15A57.66,57.66 0,1,0 57.66,1.4122626887767277e-14Z" style="stroke: rgb(80, 103, 132); stroke-opacity: 1; stroke-width: 1px;"/><path class="xgrid" d="M76.89,0A76.89,76.89 0,1,0 -76.89,-9.416309238643998e-15A76.89,76.89 0,1,0 76.89,1.8832618477287996e-14Z" style="stroke: rgb(80, 103, 132); stroke-opacity: 1; stroke-width: 1px;"/><path class="xgrid" d="M96.11,0A96.11,96.11 0,1,0 -96.11,-1.1770080386605211e-14A96.11,96.11 0,1,0 96.11,2.3540160773210422e-14Z" style="stroke: rgb(80, 103, 132); stroke-opacity: 1; stroke-width: 1px;"/><path class="xgrid" d="M115.33,0A115.33,115.33 0,1,0 -115.33,-1.4123851534566424e-14A115.33,115.33 0,1,0 115.33,2.8247703069132848e-14Z" style="stroke: rgb(80, 103, 132); stroke-opacity: 1; stroke-width: 1px;"/><path class="xgrid" d="M134.55,0A134.55,134.55 0,1,0 -134.55,-1.6477622682527638e-14A134.55,134.55 0,1,0 134.55,3.2955245365055276e-14Z" style="stroke: rgb(80, 103, 132); stroke-opacity: 1; stroke-width: 1px;"/><path class="xgrid" d="M153.77,0A153.77,153.77 0,1,0 -153.77,-1.883139383048885e-14A153.77,153.77 0,1,0 153.77,3.76627876609777e-14Z" style="stroke: rgb(80, 103, 132); stroke-opacity: 1; stroke-width: 1px;"/></g><g class="polarsublayer frontplot" transform="translate(80,68.50000000000001)" clip-path="url(#clip25a67bpolar-for-traces)"><g class="barlayer"/><g class="scatterlayer"><g class="trace scatter trace45a807" style="stroke-miterlimit: 2; opacity: 1;"><g class="fills"><g><path class="js-fill" d="M170,169.59L170.29,169.61L170.67,169.78L170.34,170.11L170.54,170.74L170,170.62L169.42,170.79L168.57,170.47L164.33,168.16L70.08,32.47L170,169.59Z" style="fill: rgb(255, 0, 255); fill-opacity: 0.5; stroke-width: 0;"/></g></g><g class="errorbars"/><g class="lines"><path class="js-line" d="M170,169.59L170.29,169.61L170.67,169.78L170.34,170.11L170.54,170.74L170,170.62L169.42,170.79L168.57,170.47L164.33,168.16L70.08,32.47L170,169.59" style="vector-effect: none; fill: none; stroke: rgb(255, 0, 255); stroke-opacity: 1; stroke-width: 2px; opacity: 1;"/></g><g class="points"/><g class="text"/></g><g class="trace scatter tracee0afe5" style="stroke-miterlimit: 2; opacity: 1;"><g class="fills"><g><path class="js-fill" d="M170,151.14L183.15,151.9L185.5,164.96L201.14,180.12L178.23,181.33L170,198.52L156.73,188.27L148.03,177.14L149.93,163.48L101.11,75.19L170,151.14Z" style="fill: rgb(30, 144, 255); fill-opacity: 0.5; stroke-width: 0;"/></g></g><g class="errorbars"/><g class="lines"><path class="js-line" d="M170,151.14L183.15,151.9L185.5,164.96L201.14,180.12L178.23,181.33L170,198.52L156.73,188.27L148.03,177.14L149.93,163.48L101.11,75.19L170,151.14" style="vector-effect: none; fill: none; stroke: rgb(30, 144, 255); stroke-opacity: 1; stroke-width: 2px; opacity: 1;"/></g><g class="points"/><g class="text"/></g></g></g><g class="polarsublayer angular-line"><path d="M170,0A170,170 0,1,0 -170,-2.0818995585505004e-14A170,170 0,1,0 170,4.163799117101001e-14Z" transform="translate(250,238.5)" stroke-width="1" style="fill: none; stroke: rgb(80, 103, 132); stroke-opacity: 1;"/></g><g class="polarsublayer radial-line"><line x1="0" y1="0" x2="170" y2="0" transform="translate(250,238.5)" stroke-width="1" style="fill: none; stroke: rgb(80, 103, 132); stroke-opacity: 1;"/></g><g class="polarsublayer angular-axis"><g class="angularaxistick"><text text-anchor="middle" x="1.7757378587636624e-16" y="-5.300000000000001" transform="translate(250,68.5)" style="font-family: 'Open Sans', verdana, arial, sans-serif; font-size: 12px; fill: rgb(242, 245, 250); fill-opacity: 1; white-space: pre; opacity: 1;">sign</text></g><g class="angularaxistick"><text text-anchor="start" x="1.7045772316481722" y="-1.8190920105588355" transform="translate(349.9234928897204,100.96711095625892)" style="font-family: 'Open Sans', verdana, arial, sans-serif; font-size: 12px; fill: rgb(242, 245, 250); fill-opacity: 1; white-space: pre; opacity: 1;">dollar</text></g><g class="angularaxistick"><text text-anchor="start" x="2.7580638972559455" y="2.3566472982524225" transform="translate(411.67960777017606,185.96711095625895)" style="font-family: 'Open Sans', verdana, arial, sans-serif; font-size: 12px; fill: rgb(242, 245, 250); fill-opacity: 1; white-space: pre; opacity: 1;">game</text></g><g class="angularaxistick"><text text-anchor="start" x="2.7580638972559455" y="8.59879058462636" transform="translate(411.67960777017606,291.0328890437411)" style="font-family: 'Open Sans', verdana, arial, sans-serif; font-size: 12px; fill: rgb(242, 245, 250); fill-opacity: 1; white-space: pre; opacity: 1;">meet</text></g><g class="angularaxistick"><text text-anchor="start" x="1.7045772316481722" y="14.523051275815105" transform="translate(349.9234928897204,376.0328890437411)" style="font-family: 'Open Sans', verdana, arial, sans-serif; font-size: 12px; fill: rgb(242, 245, 250); fill-opacity: 1; white-space: pre; opacity: 1;">play</text></g><g class="angularaxistick"><text text-anchor="middle" x="1.7757378587636624e-16" y="14.9" transform="translate(250,408.5)" style="font-family: 'Open Sans', verdana, arial, sans-serif; font-size: 12px; fill: rgb(242, 245, 250); fill-opacity: 1; white-space: pre; opacity: 1;">coming</text></g><g class="angularaxistick"><text text-anchor="end" x="-1.704577231648172" y="14.523051275815103" transform="translate(150.07650711027958,376.0328890437411)" style="font-family: 'Open Sans', verdana, arial, sans-serif; font-size: 12px; fill: rgb(242, 245, 250); fill-opacity: 1; white-space: pre; opacity: 1;">poison</text></g><g class="angularaxistick"><text text-anchor="end" x="-2.7580638972559455" y="8.598790584626363" transform="translate(88.32039222982391,291.0328890437411)" style="font-family: 'Open Sans', verdana, arial, sans-serif; font-size: 12px; fill: rgb(242, 245, 250); fill-opacity: 1; white-space: pre; opacity: 1;">trade</text></g><g class="angularaxistick"><text text-anchor="end" x="-2.758063897255946" y="2.356647298252424" transform="translate(88.32039222982388,185.96711095625898)" style="font-family: 'Open Sans', verdana, arial, sans-serif; font-size: 12px; fill: rgb(242, 245, 250); fill-opacity: 1; white-space: pre; opacity: 1;">history</text></g><g class="angularaxistick"><text text-anchor="end" x="-1.7045772316481727" y="-1.8190920105588342" transform="translate(150.07650711027955,100.96711095625895)" style="font-family: 'Open Sans', verdana, arial, sans-serif; font-size: 12px; fill: rgb(242, 245, 250); fill-opacity: 1; white-space: pre; opacity: 1;">angeles</text></g></g><g class="polarsublayer radial-axis" transform="translate(250,238.5)"><g class="xtick"><text text-anchor="start" x="0" y="14.9" transform=" rotate(90,0,8.9)" style="font-family: 'Open Sans', verdana, arial, sans-serif; font-size: 12px; fill: rgb(242, 245, 250); fill-opacity: 1; white-space: pre; opacity: 1;">0</text></g><g class="xtick"><text text-anchor="start" x="0" y="14.9" transform="translate(19.22,0) rotate(90,0,8.9)" style="font-family: 'Open Sans', verdana, arial, sans-serif; font-size: 12px; fill: rgb(242, 245, 250); fill-opacity: 1; white-space: pre; opacity: 1;">0.1</text></g><g class="xtick"><text text-anchor="start" x="0" y="14.9" transform="translate(38.44,0) rotate(90,0,8.9)" style="font-family: 'Open Sans', verdana, arial, sans-serif; font-size: 12px; fill: rgb(242, 245, 250); fill-opacity: 1; white-space: pre; opacity: 1;">0.2</text></g><g class="xtick"><text text-anchor="start" x="0" y="14.9" transform="translate(57.66,0) rotate(90,0,8.9)" style="font-family: 'Open Sans', verdana, arial, sans-serif; font-size: 12px; fill: rgb(242, 245, 250); fill-opacity: 1; white-space: pre; opacity: 1;">0.3</text></g><g class="xtick"><text text-anchor="start" x="0" y="14.9" transform="translate(76.89,0) rotate(90,0,8.9)" style="font-family: 'Open Sans', verdana, arial, sans-serif; font-size: 12px; fill: rgb(242, 245, 250); fill-opacity: 1; white-space: pre; opacity: 1;">0.4</text></g><g class="xtick"><text text-anchor="start" x="0" y="14.9" transform="translate(96.11,0) rotate(90,0,8.9)" style="font-family: 'Open Sans', verdana, arial, sans-serif; font-size: 12px; fill: rgb(242, 245, 250); fill-opacity: 1; white-space: pre; opacity: 1;">0.5</text></g><g class="xtick"><text text-anchor="start" x="0" y="14.9" transform="translate(115.33,0) rotate(90,0,8.9)" style="font-family: 'Open Sans', verdana, arial, sans-serif; font-size: 12px; fill: rgb(242, 245, 250); fill-opacity: 1; white-space: pre; opacity: 1;">0.6</text></g><g class="xtick"><text text-anchor="start" x="0" y="14.9" transform="translate(134.55,0) rotate(90,0,8.9)" style="font-family: 'Open Sans', verdana, arial, sans-serif; font-size: 12px; fill: rgb(242, 245, 250); fill-opacity: 1; white-space: pre; opacity: 1;">0.7</text></g><g class="xtick"><text text-anchor="start" x="0" y="14.9" transform="translate(153.77,0) rotate(90,0,8.9)" style="font-family: 'Open Sans', verdana, arial, sans-serif; font-size: 12px; fill: rgb(242, 245, 250); fill-opacity: 1; white-space: pre; opacity: 1;">0.8</text></g></g></g></g><g class="smithlayer"/><g class="ternarylayer"/><g class="geolayer"/><g class="funnelarealayer"/><g class="pielayer"/><g class="iciclelayer"/><g class="treemaplayer"/><g class="sunburstlayer"/><g class="glimages"/><defs id="topdefs-25a67b"><g class="clips"/><clipPath id="legend25a67b"><rect width="323" height="29" x="0" y="0"/></clipPath></defs><g class="layer-above"><g class="imagelayer"/><g class="shapelayer"/></g><g class="infolayer"><g class="legend" pointer-events="all" transform="translate(80,459.4)"><rect class="bg" shape-rendering="crispEdges" width="323" height="29" x="0" y="0" style="stroke: rgb(68, 68, 68); stroke-opacity: 1; fill: rgb(0, 0, 0); fill-opacity: 0; stroke-width: 0px;"/><g class="scrollbox" transform="" clip-path="url(#legend25a67b)"><text class="legendtitletext" text-anchor="start" x="2" y="18.2" style="font-family: 'Open Sans', verdana, arial, sans-serif; font-size: 14px; fill: rgb(242, 245, 250); fill-opacity: 1; white-space: pre;">variable</text><g class="groups" transform=""><g class="traces" transform="translate(65.828125,14.5)" style="opacity: 1;"><text class="legendtext" text-anchor="start" x="40" y="4.680000000000001" style="font-family: 'Open Sans', verdana, arial, sans-serif; font-size: 12px; fill: rgb(242, 245, 250); fill-opacity: 1; white-space: pre;">score_in_city</text><g class="layers" style="opacity: 1;"><g class="legendfill"><path class="js-fill" d="M5,-2h30v6h-30z" style="stroke-width: 0; fill: rgb(255, 0, 255); fill-opacity: 0.5;"/></g><g class="legendlines"><path class="js-line" d="M5,-2h30" style="fill: none; stroke: rgb(255, 0, 255); stroke-opacity: 1; stroke-width: 2px;"/></g><g class="legendsymbols"><g class="legendpoints"/></g></g><rect class="legendtoggle" x="0" y="-9.5" width="122.078125" height="19" style="fill: rgb(0, 0, 0); fill-opacity: 0;"/></g></g><g class="groups" transform="translate(124.578125,0)"><g class="traces" transform="translate(65.828125,14.5)" style="opacity: 1;"><text class="legendtext" text-anchor="start" x="40" y="4.680000000000001" style="font-family: 'Open Sans', verdana, arial, sans-serif; font-size: 12px; fill: rgb(242, 245, 250); fill-opacity: 1; white-space: pre;">score_in_song</text><g class="layers" style="opacity: 1;"><g class="legendfill"><path class="js-fill" d="M5,-2h30v6h-30z" style="stroke-width: 0; fill: rgb(30, 144, 255); fill-opacity: 0.5;"/></g><g class="legendlines"><path class="js-line" d="M5,-2h30" style="fill: none; stroke: rgb(30, 144, 255); stroke-opacity: 1; stroke-width: 2px;"/></g><g class="legendsymbols"><g class="legendpoints"/></g></g><rect class="legendtoggle" x="0" y="-9.5" width="129.3125" height="19" style="fill: rgb(0, 0, 0); fill-opacity: 0;"/></g></g></g><rect class="scrollbar" rx="20" ry="3" width="0" height="0" x="0" y="0" style="fill: rgb(128, 139, 164); fill-opacity: 1;"/></g><g class="g-gtitle"/><g class="g-polartitle"/></g></svg>